<svg width="22" height="26" viewBox="0 0 22 26" fill="none" xmlns="http://www.w3.org/2000/svg">
<path d="M7.70312 5.54688C7.86979 5.54688 8.01302 5.48698 8.13281 5.36719C8.2526 5.2474 8.3125 5.10417 8.3125 4.9375C8.3125 4.77083 8.2526 4.6276 8.13281 4.50781C8.01302 4.38802 7.86979 4.32812 7.70312 4.32812C7.53646 4.32812 7.39583 4.38802 7.28125 4.50781C7.16667 4.6276 7.10938 4.77083 7.10938 4.9375C7.10938 5.10417 7.16667 5.2474 7.28125 5.36719C7.39583 5.48698 7.53646 5.54688 7.70312 5.54688ZM14.2969 5.54688C14.4635 5.54688 14.6042 5.48698 14.7188 5.36719C14.8333 5.2474 14.8906 5.10417 14.8906 4.9375C14.8906 4.77083 14.8333 4.6276 14.7188 4.50781C14.6042 4.38802 14.4635 4.32812 14.2969 4.32812C14.1302 4.32812 13.987 4.38802 13.8672 4.50781C13.7474 4.6276 13.6875 4.77083 13.6875 4.9375C13.6875 5.10417 13.7474 5.2474 13.8672 5.36719C13.987 5.48698 14.1302 5.54688 14.2969 5.54688ZM1.60938 8.42188C2.04688 8.42188 2.42188 8.57812 2.73438 8.89062C3.04688 9.20312 3.20312 9.57812 3.20312 10.0156V16.7344C3.20312 17.1823 3.04948 17.5625 2.74219 17.875C2.4349 18.1875 2.05729 18.3438 1.60938 18.3438C1.16146 18.3438 0.78125 18.1875 0.46875 17.875C0.15625 17.5625 0 17.1823 0 16.7344V10.0156C0 9.57812 0.15625 9.20312 0.46875 8.89062C0.78125 8.57812 1.16146 8.42188 1.60938 8.42188ZM18.1719 8.71875V19.125C18.1719 19.6042 18.0052 20.0104 17.6719 20.3438C17.3385 20.6771 16.9375 20.8438 16.4688 20.8438H15.2969V24.3906C15.2969 24.8385 15.1406 25.2188 14.8281 25.5312C14.5156 25.8438 14.1354 26 13.6875 26C13.2396 26 12.8594 25.8438 12.5469 25.5312C12.2344 25.2188 12.0781 24.8385 12.0781 24.3906V20.8438H9.92188V24.3906C9.92188 24.8385 9.76562 25.2188 9.45312 25.5312C9.14062 25.8438 8.76042 26 8.3125 26C7.875 26 7.5 25.8438 7.1875 25.5312C6.875 25.2188 6.71875 24.8385 6.71875 24.3906L6.70312 20.8438H5.54688C5.06771 20.8438 4.66146 20.6771 4.32812 20.3438C3.99479 20.0104 3.82812 19.6042 3.82812 19.125V8.71875H18.1719ZM14.5469 2.39062C15.6615 2.96354 16.5521 3.76302 17.2188 4.78906C17.8854 5.8151 18.2188 6.9375 18.2188 8.15625H3.76562C3.76562 6.9375 4.09896 5.8151 4.76562 4.78906C5.43229 3.76302 6.32812 2.96354 7.45312 2.39062L6.34375 0.34375C6.27083 0.208333 6.29688 0.104167 6.42188 0.03125C6.55729 -0.03125 6.66146 0 6.73438 0.125L7.85938 2.1875C8.84896 1.75 9.89583 1.53125 11 1.53125C12.1042 1.53125 13.151 1.75 14.1406 2.1875L15.2656 0.125C15.3385 0 15.4427 -0.03125 15.5781 0.03125C15.7031 0.104167 15.7292 0.208333 15.6562 0.34375L14.5469 2.39062ZM22 10.0156V16.7344C22 17.1823 21.8438 17.5625 21.5312 17.875C21.2188 18.1875 20.8385 18.3438 20.3906 18.3438C19.9531 18.3438 19.5781 18.1875 19.2656 17.875C18.9531 17.5625 18.7969 17.1823 18.7969 16.7344V10.0156C18.7969 9.56771 18.9531 9.1901 19.2656 8.88281C19.5781 8.57552 19.9531 8.42188 20.3906 8.42188C20.8385 8.42188 21.2188 8.57552 21.5312 8.88281C21.8438 9.1901 22 9.56771 22 10.0156Z" fill="black"/>
</svg>
