<svg width="14" height="16" viewBox="0 0 14 16" fill="none" xmlns="http://www.w3.org/2000/svg">
<path d="M12.5 1H1.5C0.671875 1 0 1.67188 0 2.5V13.5C0 14.3281 0.671875 15 1.5 15H12.5C13.3281 15 14 14.3281 14 13.5V2.5C14 1.67188 13.3281 1 12.5 1ZM3.96875 12.0156C3.79688 12.3156 3.4125 12.4156 3.11562 12.2437C2.81562 12.0719 2.71563 11.6875 2.8875 11.3906L3.33437 10.6187C3.8375 10.4656 4.25 10.5844 4.57188 10.975L3.96875 12.0156ZM8.30937 10.3313H2.625C2.28125 10.3313 2 10.05 2 9.70625C2 9.3625 2.28125 9.08125 2.625 9.08125H4.21875L6.2625 5.54375L5.62187 4.4375C5.45 4.1375 5.55312 3.75625 5.85 3.58437C6.15 3.4125 6.53125 3.51562 6.70312 3.8125L6.98125 4.29375L7.25938 3.8125C7.43125 3.5125 7.81563 3.4125 8.1125 3.58437C8.4125 3.75625 8.5125 4.14062 8.34062 4.4375L5.65938 9.08125H7.6C8.23125 9.08125 8.58437 9.82188 8.30937 10.3313ZM11.375 10.3313H10.4688L11.0813 11.3906C11.2531 11.6906 11.15 12.0719 10.8531 12.2437C10.5531 12.4156 10.1719 12.3125 10 12.0156C8.97187 10.2375 8.20312 8.9 7.6875 8.0125C7.16562 7.10625 7.5375 6.2 7.90938 5.89375C8.31875 6.60313 8.93125 7.66563 9.75 9.08125H11.375C11.7188 9.08125 12 9.3625 12 9.70625C12 10.0531 11.7188 10.3313 11.375 10.3313Z" fill="black"/>
</svg>
