<svg width="43" height="43" viewBox="0 0 43 43" fill="none" xmlns="http://www.w3.org/2000/svg">
<path d="M29.3609 41.6562H13.6391C12.0602 41.6562 10.75 40.3797 10.75 38.7672V4.23281C10.75 2.65391 12.0602 1.34375 13.6391 1.34375H29.3609C30.9398 1.34375 32.25 2.62031 32.25 4.23281V38.8008C32.25 40.3797 30.9398 41.6562 29.3609 41.6562Z" fill="#424242"/>
<path d="M29.1493 40.3496H13.414C12.6917 40.3496 12.1072 39.765 12.1072 39.0428V6.60129C12.1072 5.88238 12.6917 5.29785 13.4106 5.29785H29.586C30.3083 5.29785 30.8928 5.88238 30.8928 6.60465V38.8311C30.8928 39.1435 30.4225 40.3496 29.1493 40.3496Z" fill="black"/>
<path d="M24.7418 3.89341H18.2918C18.0566 3.89341 17.8887 3.69185 17.8887 3.49028C17.8887 3.28872 18.0902 3.08716 18.2918 3.08716H24.7082C24.9434 3.08716 25.1113 3.28872 25.1113 3.49028C25.1113 3.69185 24.9434 3.89341 24.7418 3.89341Z" fill="#212121"/>
<path d="M29.3609 2.01562C30.5838 2.01562 31.5781 3.01 31.5781 4.23281V38.8008C31.5781 40.0034 30.5838 40.9844 29.3609 40.9844H13.6391C12.4162 40.9844 11.4219 39.99 11.4219 38.7672V4.23281C11.4219 3.03016 12.4364 2.01562 13.6391 2.01562H29.3609ZM29.3609 1.34375H13.6391C12.0602 1.34375 10.75 2.65391 10.75 4.23281V38.7672C10.75 40.3797 12.0602 41.6562 13.6391 41.6562H29.3609C30.9398 41.6562 32.25 40.3797 32.25 38.8008V4.23281C32.25 2.62031 30.9398 1.34375 29.3609 1.34375Z" fill="#757575"/>
<path d="M16.2426 10.0647H14.106C13.8608 10.0647 13.6626 9.86649 13.6626 9.62126V7.4847C13.6626 7.23946 13.8608 7.04126 14.106 7.04126H16.2426C16.4878 7.04126 16.686 7.23946 16.686 7.4847V9.62126C16.686 9.86649 16.4878 10.0647 16.2426 10.0647Z" fill="#EAB56E"/>
<path d="M20.4586 10.0647H18.322C18.0768 10.0647 17.8786 9.86649 17.8786 9.62126V7.4847C17.8786 7.23946 18.0768 7.04126 18.322 7.04126H20.4586C20.7038 7.04126 20.902 7.23946 20.902 7.4847V9.62126C20.902 9.86649 20.7038 10.0647 20.4586 10.0647Z" fill="#FB8C00"/>
<path d="M24.6746 10.0647H22.5414C22.2962 10.0647 22.098 9.86649 22.098 9.62126V7.4847C22.098 7.23946 22.2962 7.04126 22.5414 7.04126H24.678C24.9232 7.04126 25.1214 7.23946 25.1214 7.4847V9.62126C25.1214 9.86649 24.9232 10.0647 24.6746 10.0647Z" fill="#FF80AB"/>
<path d="M28.894 10.0647H26.7574C26.5122 10.0647 26.314 9.86649 26.314 9.62126V7.4847C26.314 7.23946 26.5122 7.04126 26.7574 7.04126H28.894C29.1392 7.04126 29.3374 7.23946 29.3374 7.4847V9.62126C29.3374 9.86649 29.1392 10.0647 28.894 10.0647Z" fill="#0288D1"/>
<path d="M16.2426 14.8215H14.106C13.8608 14.8215 13.6626 14.6233 13.6626 14.3781V12.2415C13.6626 11.9963 13.8608 11.7981 14.106 11.7981H16.2426C16.4878 11.7981 16.686 11.9963 16.686 12.2415V14.3781C16.686 14.6233 16.4878 14.8215 16.2426 14.8215Z" fill="#00BFA5"/>
<path d="M20.4586 14.8215H18.322C18.0768 14.8215 17.8786 14.6233 17.8786 14.3781V12.2415C17.8786 11.9963 18.0768 11.7981 18.322 11.7981H20.4586C20.7038 11.7981 20.902 11.9963 20.902 12.2415V14.3781C20.902 14.6233 20.7038 14.8215 20.4586 14.8215Z" fill="#81D4FA"/>
<path d="M24.6746 14.8215H22.5414C22.2962 14.8215 22.098 14.6233 22.098 14.3781V12.2415C22.098 11.9963 22.2962 11.7981 22.5414 11.7981H24.678C24.9232 11.7981 25.1214 11.9963 25.1214 12.2415V14.3781C25.1214 14.6233 24.9232 14.8215 24.6746 14.8215Z" fill="#FB8C00"/>
<path d="M28.894 14.8215H26.7574C26.5122 14.8215 26.314 14.6233 26.314 14.3781V12.2415C26.314 11.9963 26.5122 11.7981 26.7574 11.7981H28.894C29.1392 11.7981 29.3374 11.9963 29.3374 12.2415V14.3781C29.3374 14.6233 29.1392 14.8215 28.894 14.8215Z" fill="#EAB56E"/>
<path d="M16.2426 19.5784H14.106C13.8608 19.5784 13.6626 19.3802 13.6626 19.1349V16.9984C13.6626 16.7531 13.8608 16.5549 14.106 16.5549H16.2426C16.4878 16.5549 16.686 16.7531 16.686 16.9984V19.1349C16.686 19.3802 16.4878 19.5784 16.2426 19.5784Z" fill="#FB8C00"/>
<path d="M20.4586 19.5784H18.322C18.0768 19.5784 17.8786 19.3802 17.8786 19.1349V16.9984C17.8786 16.7531 18.0768 16.5549 18.322 16.5549H20.4586C20.7038 16.5549 20.902 16.7531 20.902 16.9984V19.1349C20.902 19.3802 20.7038 19.5784 20.4586 19.5784Z" fill="#FF80AB"/>
<path d="M24.6746 19.5784H22.5414C22.2962 19.5784 22.098 19.3802 22.098 19.1349V16.9984C22.098 16.7531 22.2962 16.5549 22.5414 16.5549H24.678C24.9232 16.5549 25.1214 16.7531 25.1214 16.9984V19.1349C25.1214 19.3802 24.9232 19.5784 24.6746 19.5784Z" fill="#00BFA5"/>
<path d="M28.894 19.5784H26.7574C26.5122 19.5784 26.314 19.3802 26.314 19.1349V16.9984C26.314 16.7531 26.5122 16.5549 26.7574 16.5549H28.894C29.1392 16.5549 29.3374 16.7531 29.3374 16.9984V19.1349C29.3374 19.3802 29.1392 19.5784 28.894 19.5784ZM16.2426 24.3352H14.106C13.8608 24.3352 13.6626 24.137 13.6626 23.8918V21.7552C13.6626 21.51 13.8608 21.3118 14.106 21.3118H16.2426C16.4878 21.3118 16.686 21.51 16.686 21.7552V23.8918C16.686 24.137 16.4878 24.3352 16.2426 24.3352Z" fill="#0288D1"/>
<path d="M20.4586 24.3352H18.322C18.0768 24.3352 17.8786 24.137 17.8786 23.8918V21.7552C17.8786 21.51 18.0768 21.3118 18.322 21.3118H20.4586C20.7038 21.3118 20.902 21.51 20.902 21.7552V23.8918C20.902 24.137 20.7038 24.3352 20.4586 24.3352ZM16.2426 38.6058H14.106C13.8608 38.6058 13.6626 38.4076 13.6626 38.1624V36.0258C13.6626 35.7806 13.8608 35.5824 14.106 35.5824H16.2426C16.4878 35.5824 16.686 35.7806 16.686 36.0258V38.1624C16.686 38.4043 16.4878 38.6058 16.2426 38.6058Z" fill="#81D4FA"/>
<path d="M20.4586 38.606H18.322C18.0768 38.606 17.8786 38.4078 17.8786 38.1625V36.026C17.8786 35.7807 18.0768 35.5825 18.322 35.5825H20.4586C20.7038 35.5825 20.902 35.7807 20.902 36.026V38.1625C20.902 38.4044 20.7038 38.606 20.4586 38.606Z" fill="#0288D1"/>
<path d="M24.6746 38.606H22.5414C22.2962 38.606 22.098 38.4078 22.098 38.1625V36.026C22.098 35.7807 22.2962 35.5825 22.5414 35.5825H24.678C24.9232 35.5825 25.1214 35.7807 25.1214 36.026V38.1625C25.1214 38.4044 24.9232 38.606 24.6746 38.606Z" fill="#00BFA5"/>
<path d="M28.894 38.606H26.7574C26.5122 38.606 26.314 38.4078 26.314 38.1625V36.026C26.314 35.7807 26.5122 35.5825 26.7574 35.5825H28.894C29.1392 35.5825 29.3374 35.7807 29.3374 36.026V38.1625C29.3374 38.4044 29.1392 38.606 28.894 38.606Z" fill="#FF80AB"/>
</svg>
