<svg width="43" height="43" viewBox="0 0 43 43" fill="none" xmlns="http://www.w3.org/2000/svg">
<g clip-path="url(#clip0_2181_28)">
<path d="M4.9172 26.9963H38.1004C38.5643 26.9963 38.9816 27.297 39.1548 27.7559L42.9179 37.7301C42.9722 37.8739 43.0001 38.0274 43.0001 38.1825V39.1006C43.0001 39.7699 42.4912 40.3125 41.8635 40.3125H1.38524C0.757538 40.3125 0.248676 39.7699 0.248676 39.1006V38.1693C0.248676 38.0229 0.273536 37.8777 0.322163 37.7407L3.85413 27.7797C4.02125 27.3083 4.44454 26.9963 4.9172 26.9963Z" fill="#ADB8BC"/>
<path d="M5.12825 1.61792H38.0006C38.5564 1.61792 39.007 2.0685 39.007 2.6243V26.0265C39.007 26.5823 38.5564 27.0329 38.0006 27.0329H5.12825C4.57244 27.0329 4.12187 26.5823 4.12187 26.0265V2.6243C4.12178 2.0685 4.57244 1.61792 5.12825 1.61792Z" fill="#C5CFD1"/>
<path d="M7.26776 5.70142H35.8611C36.4341 5.70142 36.8987 6.16593 36.8987 6.73904V23.7905C36.8987 24.3635 36.4342 24.8281 35.8611 24.8281H7.26776C6.69473 24.8281 6.23013 24.3636 6.23013 23.7905V6.73904C6.23013 6.16602 6.69473 5.70142 7.26776 5.70142Z" fill="#00B1FF"/>
<path d="M35.7463 4.65701C36.2487 4.65701 36.6561 4.24968 36.6561 3.74721C36.6561 3.24473 36.2487 2.8374 35.7463 2.8374C35.2438 2.8374 34.8365 3.24473 34.8365 3.74721C34.8365 4.24968 35.2438 4.65701 35.7463 4.65701Z" fill="#FF473E"/>
<path d="M33.0006 4.65701C33.503 4.65701 33.9104 4.24968 33.9104 3.74721C33.9104 3.24473 33.503 2.8374 33.0006 2.8374C32.4981 2.8374 32.0908 3.24473 32.0908 3.74721C32.0908 4.24968 32.4981 4.65701 33.0006 4.65701Z" fill="#D7F4F7"/>
<path d="M10.2212 32.9117L9.80509 34.0917C9.73161 34.3001 9.51913 34.4415 9.27927 34.4415H6.56153C6.18688 34.4415 5.9209 34.1082 6.03571 33.7826L6.45176 32.6026C6.52525 32.3942 6.73773 32.2528 6.97759 32.2528H9.69533C10.07 32.2528 10.336 32.5861 10.2212 32.9117ZM16.3892 32.2528H13.6408C13.3804 32.2528 13.1553 32.4189 13.1007 32.6514L12.8235 33.8313C12.7498 34.1453 13.0119 34.4414 13.3636 34.4414H16.112C16.3724 34.4414 16.5975 34.2754 16.6521 34.0429L16.9293 32.8629C17.0031 32.549 16.7409 32.2528 16.3892 32.2528ZM30.4253 33.8313L30.148 32.6514C30.0934 32.4189 29.8684 32.2528 29.6079 32.2528H26.8595C26.5078 32.2528 26.2457 32.549 26.3194 32.8629L26.5967 34.0429C26.6513 34.2754 26.8763 34.4414 27.1368 34.4414H29.8852C30.2369 34.4414 30.499 34.1453 30.4253 33.8313ZM23.5862 33.8657L23.4012 32.6857C23.3623 32.4373 23.1293 32.2528 22.8544 32.2528H20.3947C20.1199 32.2528 19.8868 32.4373 19.8479 32.6856L19.6627 33.8656C19.615 34.1695 19.8732 34.4414 20.2095 34.4414H23.0394C23.3755 34.4414 23.6338 34.1695 23.5862 33.8657ZM32.2426 37.9066L31.7159 36.6911C31.6757 36.4352 31.4357 36.2451 31.1526 36.2451H12.465C12.1819 36.2451 11.9418 36.4351 11.9017 36.6909L11.3748 37.9064C11.3256 38.2194 11.5917 38.4996 11.938 38.4996H31.6793C32.0257 38.4997 32.2917 38.2196 32.2426 37.9066ZM37.213 33.7826L36.7969 32.6026C36.7234 32.3942 36.5109 32.2528 36.2711 32.2528H33.5534C33.1787 32.2528 32.9127 32.5861 33.0275 32.9117L33.4436 34.0917C33.5171 34.3001 33.7296 34.4415 33.9694 34.4415H36.6871C37.0618 34.4414 37.3278 34.1081 37.213 33.7826ZM10.8172 28.6554H8.3551C8.13775 28.6554 7.94534 28.7834 7.87874 28.9722L7.50182 30.0412C7.39785 30.3362 7.6388 30.6381 7.97818 30.6381H10.4403C10.6576 30.6381 10.85 30.51 10.9166 30.3212L11.2935 29.2523C11.3976 28.9573 11.1567 28.6554 10.8172 28.6554ZM16.8815 28.6554H14.3916C14.1557 28.6554 13.9518 28.8058 13.9024 29.0164L13.6512 30.0854C13.5843 30.3698 13.8218 30.6381 14.1404 30.6381H16.6303C16.8662 30.6381 17.0702 30.4877 17.1196 30.277L17.3708 29.2081C17.4377 28.9236 17.2003 28.6554 16.8815 28.6554ZM29.5975 30.0854L29.3463 29.0164C29.2969 28.8058 29.0929 28.6554 28.857 28.6554H26.3671C26.0485 28.6554 25.811 28.9236 25.8779 29.2081L26.1291 30.277C26.1785 30.4877 26.3824 30.6381 26.6183 30.6381H29.1082C29.4269 30.6381 29.6644 30.3698 29.5975 30.0854ZM23.4017 30.1165L23.2341 29.0476C23.1988 28.8226 22.9877 28.6555 22.7387 28.6555H20.5102C20.2613 28.6555 20.0502 28.8225 20.0148 29.0476L19.8471 30.1165C19.8039 30.3918 20.0378 30.6382 20.3425 30.6382H22.9062C23.2108 30.6381 23.4448 30.3918 23.4017 30.1165ZM35.7469 30.0412L35.37 28.9722C35.3034 28.7834 35.1109 28.6554 34.8937 28.6554H32.4316C32.0922 28.6554 31.8512 28.9573 31.9552 29.2523L32.3321 30.3212C32.3987 30.5101 32.5912 30.6381 32.8085 30.6381H35.2706C35.61 30.6381 35.8509 30.3362 35.7469 30.0412ZM20.3992 4.1788H22.4809C22.6588 4.1788 22.8294 4.10814 22.9552 3.98236C23.081 3.85658 23.1516 3.68598 23.1516 3.5081C23.1516 3.33022 23.081 3.15963 22.9552 3.03385C22.8294 2.90807 22.6588 2.8374 22.4809 2.8374H20.3992C20.2213 2.8374 20.0507 2.90807 19.925 3.03385C19.7992 3.15963 19.7285 3.33022 19.7285 3.5081C19.7285 3.59618 19.7458 3.6834 19.7795 3.76478C19.8133 3.84616 19.8627 3.9201 19.9249 3.98238C19.9872 4.04466 20.0612 4.09407 20.1425 4.12777C20.2239 4.16147 20.3111 4.17881 20.3992 4.1788Z" fill="#1C4C5A"/>
</g>
<defs>
<clipPath id="clip0_2181_28">
<rect width="43" height="43" fill="white"/>
</clipPath>
</defs>
</svg>
