<svg width="18" height="18" viewBox="0 0 18 18" fill="none" xmlns="http://www.w3.org/2000/svg">
<path d="M5.95 10.4H3.58C3.33845 9.4823 3.33845 8.5177 3.58 7.6H5.95C5.88938 8.06432 5.85599 8.53178 5.85 9C5.85599 9.46822 5.88938 9.93568 5.95 10.4ZM4.16 6.2H6.2C6.43281 5.33606 6.76152 4.50087 7.18 3.71C5.90435 4.1457 4.83087 5.03079 4.16 6.2ZM13.84 6.2C13.1632 5.0319 12.0871 4.14764 10.81 3.71C11.2333 4.4975 11.5591 5.33366 11.78 6.2M9 14.57C9.59423 13.7256 10.0468 12.79 10.34 11.8H7.66C7.95317 12.79 8.40577 13.7256 9 14.57ZM9 3.42C8.4048 4.26744 7.95216 5.20649 7.66 6.2H10.34C10.0478 5.20649 9.5952 4.26744 9 3.42ZM4.16 11.8C4.83439 12.9662 5.9066 13.8503 7.18 14.29C6.76152 13.4991 6.43281 12.6639 6.2 11.8M18 2V16C18 16.5304 17.7893 17.0391 17.4142 17.4142C17.0391 17.7893 16.5304 18 16 18H2C1.46957 18 0.960859 17.7893 0.585786 17.4142C0.210714 17.0391 0 16.5304 0 16V2C0 1.46957 0.210714 0.960859 0.585786 0.585786C0.960859 0.210714 1.46957 0 2 0H16C16.5304 0 17.0391 0.210714 17.4142 0.585786C17.7893 0.960859 18 1.46957 18 2ZM16 9C16 7.61553 15.5895 6.26215 14.8203 5.11101C14.0511 3.95986 12.9579 3.06266 11.6788 2.53284C10.3997 2.00303 8.99223 1.86441 7.63437 2.1345C6.2765 2.4046 5.02922 3.07128 4.05025 4.05025C3.07128 5.02922 2.4046 6.2765 2.1345 7.63437C1.86441 8.99223 2.00303 10.3997 2.53284 11.6788C3.06266 12.9579 3.95986 14.0511 5.11101 14.8203C6.26215 15.5895 7.61553 16 9 16C10.8565 16 12.637 15.2625 13.9497 13.9497C15.2625 12.637 16 10.8565 16 9ZM12.15 9C12.144 9.46822 12.1106 9.93568 12.05 10.4H14.42C14.6616 9.4823 14.6616 8.5177 14.42 7.6H12.05C12.1106 8.06432 12.144 8.53178 12.15 9ZM10.81 14.29C12.0862 13.8508 13.1618 12.9669 13.84 11.8H11.78C11.5591 12.6663 11.2333 13.5025 10.81 14.29ZM7.36 7.6C7.21056 8.52735 7.21056 9.47265 7.36 10.4H10.64C10.7094 9.93649 10.7462 9.46867 10.75 9C10.7462 8.53133 10.7094 8.06351 10.64 7.6H7.36Z" fill="#00B1FF"/>
</svg>
