<svg width="80" height="71" viewBox="0 0 80 71" fill="none" xmlns="http://www.w3.org/2000/svg">
<path d="M48.882 24.8954C51.3642 24.8954 53.3763 22.8832 53.3763 20.4011C53.3763 17.9189 51.3642 15.9067 48.882 15.9067C46.3999 15.9067 44.3877 17.9189 44.3877 20.4011C44.3877 22.8832 46.3999 24.8954 48.882 24.8954Z" fill="white"></path>
<path d="M57.7188 9.94809C52.669 3.53485 45.8518 0 38.5801 0V5.25178C44.1853 5.25178 49.5381 8.07966 53.578 13.18C57.2643 17.8763 59.4862 23.936 59.9407 30.4502H43.6804V35.702H65.2935V33.0761C65.344 24.3905 62.6171 16.1593 57.7188 9.94809Z" fill="white"></path>
<path d="M33.2278 26.9659C21.9162 28.2789 13.0791 37.924 13.0791 49.589H18.3309C18.3309 39.9439 26.1581 32.0662 35.8537 32.0662H38.4795V16.4119H33.2278V26.9659Z" fill="white"></path>
<path d="M36.51 37.5706C32.9246 37.5706 29.6423 38.8835 27.3194 41.3074C25.0975 43.6303 23.8855 46.8117 23.8855 50.195C23.8855 56.0528 28.6828 60.8501 34.5406 60.8501V55.5983C31.5612 55.5983 29.1373 53.1744 29.1373 50.195C29.1373 45.8522 32.1672 42.8223 36.51 42.8223C41.4083 42.8223 46.4076 45.9027 46.4076 52.7199C46.4076 59.8906 40.5498 65.7484 33.3791 65.7484C17.8763 65.7484 5.25178 53.1239 5.25178 37.6211C5.25178 22.1687 17.8258 9.54422 33.2781 9.49372V4.24194C14.8969 4.29244 0 19.2398 0 37.6211C0 56.0023 14.9474 71.0002 33.3791 71.0002C43.4282 71.0002 51.6593 62.8195 51.6593 52.7199C51.6593 48.5791 50.2454 44.7918 47.6195 42.0649C44.7916 39.0855 40.9538 37.5706 36.51 37.5706Z" fill="white"></path>
</svg>
