<svg width="18" height="20" viewBox="0 0 18 20" fill="none" xmlns="http://www.w3.org/2000/svg">
<path d="M0.636986 1.43408L9.37699 10.0051L0.701986 18.6551C0.56006 18.4702 0.449888 18.2631 0.375986 18.0421C0.337765 17.7919 0.337765 17.5373 0.375986 17.2871V2.56708C0.349986 2.17208 0.440986 1.77708 0.635986 1.43408M13.142 6.26708L10.289 9.09308L1.65299 0.600078C1.93299 0.503078 2.23299 0.476079 2.52599 0.522079C2.98599 0.648079 3.42499 0.842079 3.82799 1.09508L11.644 5.42008C12.152 5.69308 12.647 5.98008 13.142 6.26708ZM10.29 10.9301L13.129 13.7181L11.071 14.8641L4.79199 18.3541C4.27199 18.6411 3.74999 18.9151 3.24199 19.2281C3.02461 19.3634 2.78087 19.4508 2.52703 19.4844C2.27319 19.5181 2.0151 19.4971 1.76999 19.4231L10.29 10.9301ZM17.65 10.0051C17.6573 10.3548 17.5689 10.6998 17.3944 11.0029C17.22 11.306 16.966 11.5557 16.66 11.7251L14.314 13.0271L11.227 10.0051L14.327 6.93108C15.122 7.37408 15.904 7.81708 16.685 8.23408C16.9965 8.40817 17.2523 8.66688 17.4229 8.98028C17.5935 9.29369 17.6729 9.64899 17.65 10.0051Z" fill="black"/>
</svg>
