<svg width="129" height="28" viewBox="0 0 129 28" fill="none" xmlns="http://www.w3.org/2000/svg">
<path d="M0.585227 4.21875V0.818181H20.848V4.21875H12.679V27H8.74148V4.21875H0.585227ZM23.3058 0.818181H27.793L34.6325 12.7202H34.9137L41.7532 0.818181H46.2404L36.7418 16.7216V27H32.8043V16.7216L23.3058 0.818181ZM49.9702 0.818181H54.7642L63.0994 21.1705H63.4062L71.7415 0.818181H76.5355V27H72.777V8.05398H72.5341L64.8125 26.9616H61.6932L53.9716 8.04119H53.7287V27H49.9702V0.818181ZM99.1154 0.818181H103.078V18.0384C103.078 19.8707 102.648 21.4943 101.787 22.9091C100.926 24.3153 99.7163 25.4233 98.1566 26.233C96.5969 27.0341 94.7688 27.4347 92.6722 27.4347C90.5842 27.4347 88.7603 27.0341 87.2006 26.233C85.641 25.4233 84.4308 24.3153 83.57 22.9091C82.7092 21.4943 82.2788 19.8707 82.2788 18.0384V0.818181H86.229V17.7188C86.229 18.9034 86.489 19.956 87.0089 20.8764C87.5373 21.7969 88.283 22.5213 89.2461 23.0497C90.2092 23.5696 91.3512 23.8295 92.6722 23.8295C94.0018 23.8295 95.1481 23.5696 96.1112 23.0497C97.0827 22.5213 97.8242 21.7969 98.3356 20.8764C98.8555 19.956 99.1154 18.9034 99.1154 17.7188V0.818181ZM108.822 27V0.818181H118.154C120.183 0.818181 121.866 1.16761 123.204 1.86648C124.55 2.56534 125.556 3.53267 126.221 4.76847C126.886 5.99574 127.218 7.41477 127.218 9.02557C127.218 10.6278 126.881 12.0384 126.208 13.2571C125.543 14.4673 124.538 15.4091 123.191 16.0824C121.853 16.7557 120.17 17.0923 118.141 17.0923H111.072V13.6918H117.783C119.062 13.6918 120.102 13.5085 120.903 13.142C121.712 12.7756 122.305 12.2429 122.68 11.544C123.055 10.8452 123.242 10.0057 123.242 9.02557C123.242 8.03693 123.05 7.1804 122.667 6.45597C122.292 5.73153 121.7 5.17756 120.89 4.79403C120.089 4.40199 119.036 4.20597 117.732 4.20597H112.772V27H108.822ZM121.746 15.1875L128.215 27H123.715L117.374 15.1875H121.746Z" fill="white"/>
</svg>
