<svg width="16" height="16" viewBox="0 0 16 16" fill="none" xmlns="http://www.w3.org/2000/svg">
<path d="M4.99625 11.9926C4.92125 12.0389 4.82375 12.0201 4.77375 11.9476C4.51125 11.5676 3.8125 10.3014 4.0775 7.88886C4.25 6.32261 5.1375 4.06136 5.43875 3.32886C5.44882 3.30414 5.46474 3.28223 5.48513 3.26502C5.50553 3.2478 5.52979 3.23579 5.55585 3.23001C5.58191 3.22423 5.60898 3.22486 5.63474 3.23185C5.6605 3.23883 5.68418 3.25196 5.70375 3.27011C6.00625 3.54636 6.745 4.01261 8.09 3.70011C8.51625 3.60136 9.84625 2.26886 10.915 3.46886C11.575 4.21011 11.0938 4.64636 11.0888 5.71261C11.0825 7.08511 12.4638 7.50636 12.915 7.73136C13.03 7.78886 13.0388 7.94761 12.9313 8.01761C12.4075 8.35761 11.6725 8.51761 10.7488 9.25261C9.57625 10.1839 9.56625 11.0564 9.32625 11.3589C9.205 11.5114 8.25 11.9401 8.25 11.9401C8.25 11.9401 7.5825 11.7626 7.55 11.7501L6.35875 11.2239C6.31125 11.2064 6.2575 11.2114 6.21375 11.2389L4.99625 11.9926Z" fill="url(#paint0_linear_2185_37)"/>
<path d="M4.695 6.78879C4.01875 8.88254 4.50875 10.6025 4.50875 10.6025C4.50875 10.6025 6.49375 9.90129 6.49875 9.82004C6.5025 9.73879 7.78875 6.68129 7.78875 6.68129C7.78875 6.68129 8.725 4.14879 9.9125 2.97129C9.06125 3.06379 8.3725 3.63504 8.09 3.70004C7.20375 3.90629 6.5825 3.77379 6.17375 3.58004C5.95 3.93629 5.17 5.31629 4.695 6.78879Z" fill="url(#paint1_radial_2185_37)"/>
<path d="M7.50375 10.5475L8.1375 10.835C8.1375 10.835 9.1425 8.54121 9.65125 7.74996C10.1613 6.95871 11.0888 5.71246 11.0888 5.71246C11.0875 4.64621 11.5763 4.20996 10.915 3.46871C10.8713 3.41871 10.825 3.37496 10.78 3.33371C10.3563 3.84246 9.65625 4.83621 9.13125 5.58121C7.7125 7.59496 7.50375 10.5475 7.50375 10.5475Z" fill="url(#paint2_linear_2185_37)"/>
<path d="M3.0575 12.9549C3.18375 13.2987 3.80125 14.2849 3.80125 14.2849L4.51875 13.9399L4.23375 12.7074L5.5175 11.6387C6.04829 11.7612 6.59734 11.7833 7.13625 11.7037C7.50375 11.7312 8.54875 11.7187 8.94375 10.7574L9.51625 9.39491L9.98 9.23366C10.1087 8.96491 9.68625 8.72241 9.4175 8.59491C9.14875 8.46741 8.9175 8.56616 8.6975 8.84991C8.56625 9.01991 8.26125 9.49616 8.03875 9.84991C7.98875 9.47116 7.95375 9.00866 7.95125 8.44616L6.91 7.94491L5.6425 7.89116C5.18 8.93741 4.94125 9.73366 4.82 10.2974C4.40125 10.7699 3.31625 11.9974 3.17625 12.1924C3.00375 12.4324 2.93125 12.6112 3.0575 12.9549Z" fill="url(#paint3_linear_2185_37)"/>
<path d="M10.7987 11.1724C10.725 11.3074 10.4937 11.3999 10.3275 11.4512C10.2262 11.4824 10.1187 11.4299 10.0787 11.3337L9.8325 10.7437C9.8025 10.6712 9.81625 10.5874 9.86875 10.5274L10.1 10.2674C10.015 10.1524 9.90875 10.0599 9.78625 9.98618C9.5775 9.85993 9.36875 9.86493 9.3475 9.84743C9.0825 9.63368 8.885 9.38368 9.04 8.97368C9.19375 8.56618 9.72375 8.69118 9.72375 8.69118C9.72375 8.69118 10.2675 9.07368 10.6175 9.90368C10.7312 10.1699 10.9525 10.8924 10.7987 11.1724Z" fill="url(#paint4_linear_2185_37)"/>
<path d="M9.415 5.64373C9.415 5.64373 10.1075 4.99998 10.1588 4.71123C10.2438 4.23248 9.83875 3.78998 9.62875 3.96123C9.1725 4.33123 9.04875 4.78998 8.8225 5.12248C8.5975 5.45498 9.115 5.94748 9.415 5.64373Z" fill="url(#paint5_linear_2185_37)"/>
<path d="M7.075 7.65382L7.10625 7.56882C7.1625 7.77632 7.295 7.96632 7.475 8.06257C7.475 8.06257 8.1975 8.30132 8.37875 7.96507C8.37875 7.96507 9.245 6.60007 9.3825 6.22007C9.52125 5.84007 9.51625 5.53007 9.19125 5.32882C8.92875 5.16757 8.57625 5.24507 8.25375 5.61132C8.10875 5.77632 7.77375 6.28007 7.51875 6.67132C7.47875 6.73382 7.3825 6.68507 7.40875 6.61507L8.92375 2.62632L8.2475 2.19632C8.2475 2.19632 6.235 5.41257 5.93875 6.02757C5.6425 6.64257 5.5375 7.54507 5.5375 7.54507L7.075 7.65382Z" fill="url(#paint6_linear_2185_37)"/>
<path opacity="0.4" d="M8.345 8.01382L8.095 8.42132C8.06 8.50007 7.97 8.53257 7.8975 8.49132C7.07 8.01882 6.63 7.89257 5.68875 7.94882C5.6025 7.95382 5.53125 7.87632 5.5375 7.78257L5.57 7.34382C5.57 7.34382 5.915 7.14882 6.96875 7.37257C7.71625 7.53132 8.345 8.01382 8.345 8.01382Z" fill="#212121"/>
<path d="M5.615 7.38255C6.675 7.3263 7.33875 7.51755 8.26375 8.0088C8.33625 8.04755 8.365 8.1363 8.33 8.2113L8.18125 8.5263C8.14375 8.60505 8.0475 8.63755 7.97 8.5963C7.08375 8.1238 6.6125 7.9988 5.6025 8.0538C5.51 8.0588 5.4325 7.98005 5.44125 7.88755L5.47 7.52505C5.47625 7.44755 5.53875 7.3863 5.615 7.38255Z" fill="url(#paint7_linear_2185_37)"/>
<path d="M6.55375 7.62619L6.8425 7.43494C6.9 7.39744 6.97625 7.41244 7.01375 7.46994L7.205 7.75869C7.21401 7.77222 7.22025 7.78739 7.22337 7.80333C7.22649 7.81928 7.22641 7.83569 7.22316 7.85161C7.21991 7.86752 7.21354 7.88264 7.20441 7.89609C7.19529 7.90953 7.18359 7.92104 7.17 7.92994L6.88125 8.12119C6.86773 8.1302 6.85256 8.13644 6.83661 8.13956C6.82066 8.14268 6.80426 8.14261 6.78834 8.13935C6.77242 8.1361 6.7573 8.12973 6.74386 8.1206C6.73041 8.11148 6.71891 8.09978 6.71 8.08619L6.51875 7.79744C6.48125 7.74119 6.49625 7.66494 6.55375 7.62619Z" fill="#FDD835"/>
<path d="M7.19 10.3726C7.03 10.4426 6.7325 10.5401 6.30375 10.5564C6.27625 10.5576 6.25 10.5576 6.225 10.5576C5.83875 10.5576 5.6025 10.4526 5.48125 10.3789L6.34875 9.44637L7.19 10.3726Z" fill="#E53935"/>
<path d="M6.22375 10.4275C5.9875 10.4275 5.81375 10.385 5.6925 10.3388L6.34625 9.63628L6.965 10.3175C6.80625 10.3675 6.5825 10.4163 6.29875 10.4263C6.2725 10.4275 6.24875 10.4275 6.22375 10.4275ZM6.22375 10.6863C6.25125 10.6863 6.27875 10.6863 6.3075 10.685C7.02875 10.6588 7.39875 10.41 7.39875 10.41L6.34875 9.25378L5.28875 10.3938C5.29 10.3938 5.5625 10.6863 6.22375 10.6863Z" fill="#FDD835"/>
<path opacity="0.42" d="M7.39875 10.41C7.39875 10.41 7.02875 10.6587 6.3075 10.685C5.58625 10.7112 5.28875 10.3937 5.28875 10.3937L6.34875 9.25373L7.39875 10.41Z" fill="url(#paint8_linear_2185_37)"/>
<path d="M8.7675 3.80008C8.7675 3.80008 8.96875 2.59258 9.465 1.80258C9.7075 1.48133 10.1025 1.21758 10.3075 0.666326C10.4013 0.412576 9.85375 0.171325 9.4275 0.405075C9.17125 0.546325 8.78375 1.40883 8.78375 1.40883C8.44125 2.03133 7.42125 3.02383 7.42125 3.02383C7.6175 3.93508 8.7675 3.80008 8.7675 3.80008Z" fill="url(#paint9_linear_2185_37)"/>
<path d="M9.325 11.3601C9.325 11.3601 8.61375 12.2576 7.34375 12.0013C6.4 11.8113 6.59875 11.2051 6.59875 11.2051C6.59875 11.2051 7.075 11.2013 7.50375 11.3001C7.9375 11.4001 8.32375 11.6013 8.55375 11.5776L9.325 11.3601Z" fill="#ED4132"/>
<path d="M6.59875 11.2037C6.59875 11.2037 6.54 11.8174 6.125 11.9662C5.71 12.1149 4.78 12.2524 4.78 12.2524C4.78 12.2524 5.07125 11.6824 5.29625 11.5024C5.77125 11.1237 6.59875 11.2037 6.59875 11.2037Z" fill="#ED4132"/>
<path opacity="0.4" d="M8.85875 10.9337C8.85875 10.9337 8.45125 11.3012 7.83125 11.1524C6.93875 10.9387 6.59875 11.2037 6.59875 11.2037C6.59875 11.2037 5.9425 10.9674 5.32125 11.2662C4.895 11.4712 4.77875 12.2524 4.77875 12.2524L4.925 12.0874C4.925 12.0874 5.4725 11.4912 6.0175 11.3299C6.41625 11.2112 6.5975 11.2037 6.5975 11.2037C6.5975 11.2037 8.0675 11.7074 8.4025 11.5674C8.7375 11.4274 8.85875 10.9337 8.85875 10.9337Z" fill="#212121"/>
<path d="M4.415 12.8849C4.4325 13.0011 4.65375 14.7774 5.06875 14.8699C5.06875 14.8699 5.28875 14.8674 5.51375 14.8474C5.69125 14.8411 5.80875 14.8886 5.8425 14.9999C5.88375 15.0849 5.84125 15.2749 5.77 15.4874C5.69875 15.7011 5.57125 15.7274 5.47 15.7299C5.27375 15.7349 4.93875 15.5361 4.47875 15.1386C3.59375 14.3736 3.11 13.2199 3.11 13.2199C3.12625 13.2199 3.69625 12.4411 4.415 12.8849Z" fill="url(#paint10_linear_2185_37)"/>
<path d="M5.39125 12.35C5.43875 12.4288 5.385 12.5138 5.29375 12.6188C5.1475 12.7863 4.99625 13.1663 5.165 13.54C5.16375 13.5425 5.1975 13.605 5.1975 13.6075H5.26125C5.28125 13.61 5.98125 13.5838 6.68125 13.555C7.38125 13.5275 8.08 13.4975 8.1 13.4938C8.1 13.4938 8.19125 13.4213 8.19 13.4188C8.33 13.0325 8.1475 12.6663 7.98875 12.5113C7.88875 12.4138 7.82875 12.3338 7.87 12.2513C7.91 12.1713 8.0375 12.155 8.0375 12.155C8.0375 12.155 8.005 12.0763 7.9325 12.0363C7.865 11.9988 7.78375 11.9925 7.7275 11.9938C7.7275 11.9938 7.4975 11.7 6.92625 11.7225L6.60875 11.735L6.29125 11.7475C5.72 11.77 5.51375 12.0813 5.51375 12.0813C5.4575 12.085 5.3775 12.0975 5.31375 12.14C5.24375 12.1863 5.2175 12.2675 5.2175 12.2675C5.2175 12.2675 5.345 12.2725 5.39125 12.35Z" fill="#312D2D"/>
<path d="M6.60875 11.7337L6.6225 12.0687L5.61125 12.1899L5.51375 12.0799C5.51375 12.0799 5.72 11.7687 6.29125 11.7462L6.60875 11.7337Z" fill="url(#paint11_radial_2185_37)"/>
<path d="M5.5225 12.2263C5.68375 12.4513 5.35 12.55 5.35 12.55C5.40625 12.475 5.43 12.41 5.3925 12.3488C5.34625 12.2725 5.2175 12.2663 5.2175 12.2663C5.2175 12.2663 5.385 12.105 5.5225 12.2263Z" fill="url(#paint12_radial_2185_37)"/>
<path d="M5.165 13.5399C5 13.1786 5.1425 12.7936 5.285 12.6274C5.305 12.6049 5.3875 12.5161 5.405 12.4474C5.405 12.4474 5.7625 12.9061 5.875 13.1799C5.8975 13.2349 5.91875 13.2924 5.92375 13.3511C5.9275 13.3961 5.9225 13.4486 5.89875 13.4886C5.86875 13.5361 5.185 13.5774 5.185 13.5774C5.18375 13.5774 5.165 13.5399 5.165 13.5399Z" fill="url(#paint13_radial_2185_37)"/>
<path d="M8.19 13.4188C8.32625 13.0451 8.1525 12.6726 7.9975 12.5188C7.97625 12.4976 7.88625 12.4163 7.86375 12.3488C7.86375 12.3488 7.54375 12.8351 7.45375 13.1163C7.43625 13.1726 7.41875 13.2313 7.41875 13.2913C7.41875 13.3363 7.4275 13.3888 7.455 13.4263C7.48875 13.4713 7.525 13.4576 7.57875 13.4551C7.68125 13.4513 8.13 13.4588 8.165 13.4576C8.165 13.4588 8.19 13.4188 8.19 13.4188Z" fill="url(#paint14_radial_2185_37)"/>
<path d="M6.6075 11.7336L6.62125 12.0686L7.63875 12.1086L7.72625 11.9911C7.72625 11.9911 7.49625 11.6974 6.925 11.7199L6.6075 11.7336Z" fill="url(#paint15_radial_2185_37)"/>
<path d="M7.73 12.1387C7.5875 12.3762 7.9275 12.4487 7.9275 12.4487C7.86625 12.3787 7.8375 12.3162 7.86875 12.2512C7.90875 12.1712 8.03625 12.155 8.03625 12.155C8.03625 12.155 7.85625 12.0062 7.73 12.1387Z" fill="url(#paint16_radial_2185_37)"/>
<path d="M6.62375 12.0901L7.02625 12.0789L7.015 11.7664C7.015 11.3714 6.595 11.2039 6.595 11.2039C6.595 11.2039 6.21125 11.4101 6.21125 11.7726L6.2225 12.1001L6.62375 12.0901ZM5.69625 13.3139L5.95625 13.3064L7.36375 13.2676L7.62375 13.2601C7.83125 13.2539 7.99625 13.0689 7.99 12.8476C7.98375 12.6264 7.80875 12.4501 7.60125 12.4551L7.34125 12.4626L5.93375 12.5014L5.67375 12.5089C5.46625 12.5151 5.30125 12.7001 5.3075 12.9214C5.31375 13.1426 5.48875 13.3189 5.69625 13.3139Z" fill="#EDC391"/>
<path d="M6.7025 14.7099C7.31625 14.6937 7.86625 14.0212 7.84 13.0774C7.81375 12.1387 7.21625 11.6899 6.62 11.7062C6.02375 11.7224 5.45125 12.2024 5.47625 13.1424C5.50375 14.0862 6.09 14.7262 6.7025 14.7099Z" fill="#F9DDBD"/>
<path d="M7.22632 12.7613C7.1304 12.764 7.05484 12.8466 7.05755 12.946C7.06027 13.0454 7.14023 13.1238 7.23615 13.1212C7.33207 13.1186 7.40764 13.0359 7.40492 12.9365C7.40221 12.8371 7.32225 12.7587 7.22632 12.7613Z" fill="#312D2D"/>
<path d="M6.0676 12.7938C5.97168 12.7964 5.89612 12.8791 5.89883 12.9785C5.90154 13.0779 5.9815 13.1563 6.07743 13.1537C6.17335 13.151 6.24891 13.0684 6.2462 12.969C6.24349 12.8696 6.16353 12.7912 6.0676 12.7938Z" fill="#312D2D"/>
<path d="M6.345 12.3224C6.455 12.2524 6.82375 12.2424 6.9375 12.3061C7.0025 12.3424 7.0675 12.2824 7.03875 12.2249C7.01125 12.1686 6.80625 12.0399 6.6325 12.0449C6.45875 12.0499 6.26375 12.1886 6.24 12.2474C6.215 12.3049 6.28125 12.3624 6.345 12.3224Z" fill="#444444"/>
<path d="M6.53 12.6413C6.5336 12.6427 6.53739 12.6436 6.54125 12.6438L6.79125 12.6363C6.795 12.6363 6.79875 12.635 6.8025 12.6325C6.825 12.6225 6.83625 12.5988 6.825 12.5738C6.81375 12.5488 6.7625 12.48 6.6625 12.4838C6.5625 12.4863 6.515 12.5575 6.505 12.5825C6.495 12.61 6.5075 12.6338 6.53 12.6413Z" fill="#DBA689"/>
<path d="M6.97375 13.2763C7.0075 13.3188 7.08625 13.3813 7.235 13.3775C7.38375 13.3738 7.45875 13.3075 7.49 13.2625C7.50375 13.2425 7.5 13.22 7.48875 13.2075C7.47875 13.195 7.45125 13.1838 7.42 13.195C7.38875 13.2063 7.33 13.2388 7.23 13.2425C7.13 13.245 7.06875 13.215 7.0375 13.205C7.00625 13.195 6.97875 13.2075 6.97 13.2213C6.96482 13.2297 6.96241 13.2395 6.96308 13.2494C6.96375 13.2592 6.96748 13.2686 6.97375 13.2763ZM5.81375 13.3075C5.8475 13.35 5.92625 13.4125 6.075 13.4088C6.22375 13.405 6.29875 13.3388 6.33 13.2938C6.34375 13.2738 6.34 13.2513 6.32875 13.2388C6.31875 13.2263 6.29125 13.215 6.26 13.2263C6.22875 13.2375 6.17 13.27 6.07 13.2738C5.97 13.2763 5.90875 13.2463 5.8775 13.2363C5.84625 13.2263 5.81875 13.2388 5.81 13.2525C5.8025 13.2663 5.79875 13.2888 5.81375 13.3075Z" fill="#454140"/>
<path d="M5.28625 14.2999C5.37875 14.4274 5.58 14.5961 5.75375 14.5999C5.78875 14.7661 5.97375 14.9011 6.14875 14.9499C6.625 15.0799 6.92375 14.9011 7.08375 14.8049C7.1175 14.7849 7.3325 14.6536 7.49 14.7349C7.58875 14.7861 7.5925 14.9349 7.5925 14.9349C7.5925 14.9349 7.89125 14.8074 7.77375 14.4899C7.8775 14.4811 8.0125 14.4324 8.07875 14.2836C8.1575 14.1061 8.12125 13.9624 8.09375 13.8936C8.18 13.8136 8.28625 13.6474 8.20125 13.4411C8.13625 13.2849 7.90125 13.2224 7.90125 13.2224C7.90625 12.9374 7.84625 12.7649 7.815 12.6949C7.81 12.6824 7.7925 12.6849 7.78875 12.6974C7.75875 12.8399 7.65875 13.3349 7.67375 13.4211C7.67375 13.4211 7.27375 13.5174 6.90125 13.8149C6.825 13.8761 6.7425 13.9286 6.65375 13.9674C6.17875 14.1786 6.065 13.8549 6.065 13.8549C6.065 13.8549 5.73375 13.9324 5.61375 13.4724C5.56875 13.2999 5.5325 13.0224 5.5025 12.8286C5.5 12.8149 5.48125 12.8124 5.47625 12.8261C5.445 12.9049 5.38375 13.0611 5.37375 13.2186C5.37 13.2736 5.225 13.3524 5.17 13.5911C5.1025 13.9086 5.21875 14.2074 5.28625 14.2999Z" fill="#312D2D"/>
<path d="M5.38 13.2161C5.37625 13.2711 5.23125 13.3499 5.17625 13.5886C5.17 13.6136 5.16625 13.6399 5.16125 13.6661C5.12125 13.9561 5.225 14.2161 5.28625 14.2999C5.37125 14.4174 5.55 14.5699 5.71375 14.5961C5.7275 14.5974 5.74125 14.5986 5.755 14.5986C5.755 14.5986 5.74 14.5224 5.76875 14.4611C5.805 14.3811 5.88625 14.3586 5.88625 14.3586C5.44375 13.9499 5.46 13.5936 5.38 13.2161Z" fill="url(#paint17_radial_2185_37)"/>
<path d="M6.98375 14.8626C7.0225 14.8426 7.055 14.8226 7.085 14.8051C7.11875 14.7851 7.33375 14.6538 7.49125 14.7351C7.58875 14.7851 7.59375 14.9288 7.59375 14.9351C7.635 14.8776 7.75125 14.4738 7.36375 14.4626C7.19625 14.4576 7.1 14.6076 7.04375 14.7326C7.025 14.7788 6.9925 14.8451 6.98375 14.8626Z" fill="url(#paint18_radial_2185_37)"/>
<path d="M6.19875 14.9624C5.93625 14.9024 5.80375 14.7749 5.755 14.5999C5.74 14.5487 5.70625 14.0662 6.65125 14.5787C7.0025 14.7699 6.91375 14.9012 6.875 14.9174C6.71875 14.9799 6.4925 15.0299 6.19875 14.9624Z" fill="url(#paint19_radial_2185_37)"/>
<path d="M7.595 14.9351C7.595 14.9351 7.59625 14.9351 7.5975 14.9338C7.63 14.9188 7.885 14.7876 7.77625 14.4913L7.49875 14.4576C7.7525 14.6951 7.59375 14.9351 7.595 14.9351Z" fill="url(#paint20_radial_2185_37)"/>
<path d="M7.60375 14.47L7.775 14.49C7.78125 14.49 7.805 14.4862 7.81625 14.485C7.91125 14.4675 8.02375 14.4137 8.07875 14.2837C8.13875 14.1437 8.1325 14.0262 8.11125 13.9487C8.105 13.9225 8.0925 13.8937 8.0925 13.8937C8.0925 13.8937 8.01125 13.9775 7.81 13.99L7.60375 14.47Z" fill="url(#paint21_radial_2185_37)"/>
<path d="M8.10375 13.8862C8.185 13.8087 8.29125 13.6375 8.2 13.4337C8.13125 13.28 7.90375 13.2212 7.90375 13.2212C7.90375 13.2212 7.85875 13.2087 7.835 13.21L7.81375 13.99C7.92125 13.9862 8.02375 13.9487 8.08875 13.9C8.0875 13.9 8.10375 13.8875 8.10375 13.8862Z" fill="url(#paint22_radial_2185_37)"/>
<defs>
<linearGradient id="paint0_linear_2185_37" x1="6.05413" y1="9.87036" x2="9.61425" y2="5.10186" gradientUnits="userSpaceOnUse">
<stop stop-color="#A52714"/>
<stop offset="0.529" stop-color="#D23F31"/>
<stop offset="1" stop-color="#ED4132"/>
</linearGradient>
<radialGradient id="paint1_radial_2185_37" cx="0" cy="0" r="1" gradientUnits="userSpaceOnUse" gradientTransform="translate(6.64067 8.07845) rotate(-159.421) scale(2.3224 4.50039)">
<stop stop-color="#212121"/>
<stop offset="0.999" stop-color="#212121" stop-opacity="0"/>
</radialGradient>
<linearGradient id="paint2_linear_2185_37" x1="10.4493" y1="9.11221" x2="8.61263" y2="5.94121" gradientUnits="userSpaceOnUse">
<stop stop-color="#212121"/>
<stop offset="0.999" stop-color="#212121" stop-opacity="0"/>
</linearGradient>
<linearGradient id="paint3_linear_2185_37" x1="6.49912" y1="10.8224" x2="6.52062" y2="8.36266" gradientUnits="userSpaceOnUse">
<stop stop-color="#42A5F5"/>
<stop offset="1" stop-color="#1E88E5"/>
</linearGradient>
<linearGradient id="paint4_linear_2185_37" x1="9.70425" y1="9.42168" x2="10.524" y2="11.2008" gradientUnits="userSpaceOnUse">
<stop stop-color="#A52714"/>
<stop offset="0.529" stop-color="#D23F31"/>
<stop offset="1" stop-color="#DB4437"/>
</linearGradient>
<linearGradient id="paint5_linear_2185_37" x1="9.10888" y1="5.49648" x2="9.73388" y2="4.52773" gradientUnits="userSpaceOnUse">
<stop offset="0.001" stop-color="#851F10"/>
<stop offset="0.841" stop-color="#A52714"/>
</linearGradient>
<linearGradient id="paint6_linear_2185_37" x1="7.27625" y1="6.99094" x2="8.41987" y2="4.42332" gradientUnits="userSpaceOnUse">
<stop stop-color="#42A5F5"/>
<stop offset="1" stop-color="#1E88E5"/>
</linearGradient>
<linearGradient id="paint7_linear_2185_37" x1="8.16238" y1="8.19392" x2="5.45988" y2="7.6033" gradientUnits="userSpaceOnUse">
<stop stop-color="#D32F2F"/>
<stop offset="0.23" stop-color="#F44336"/>
<stop offset="0.742" stop-color="#F44336"/>
<stop offset="1" stop-color="#D32F2F"/>
</linearGradient>
<linearGradient id="paint8_linear_2185_37" x1="6.34413" y1="10.4071" x2="6.34413" y2="9.17523" gradientUnits="userSpaceOnUse">
<stop stop-color="#0D47A1" stop-opacity="0"/>
<stop offset="1" stop-color="#0D47A1"/>
</linearGradient>
<linearGradient id="paint9_linear_2185_37" x1="7.73775" y1="3.45295" x2="10.527" y2="0.663701" gradientUnits="userSpaceOnUse">
<stop stop-color="#A52714"/>
<stop offset="0.529" stop-color="#D23F31"/>
<stop offset="1" stop-color="#ED4132"/>
</linearGradient>
<linearGradient id="paint10_linear_2185_37" x1="3.704" y1="13.0104" x2="5.43013" y2="15.6211" gradientUnits="userSpaceOnUse">
<stop stop-color="#A52714"/>
<stop offset="0.529" stop-color="#D23F31"/>
<stop offset="1" stop-color="#DB4437"/>
</linearGradient>
<radialGradient id="paint11_radial_2185_37" cx="0" cy="0" r="1" gradientUnits="userSpaceOnUse" gradientTransform="translate(6.10981 12.2384) rotate(177.713) scale(0.832122 0.408733)">
<stop offset="0.728" stop-color="#454140" stop-opacity="0"/>
<stop offset="1" stop-color="#454140"/>
</radialGradient>
<radialGradient id="paint12_radial_2185_37" cx="0" cy="0" r="1" gradientUnits="userSpaceOnUse" gradientTransform="translate(5.29569 12.3949) rotate(-27.3671) scale(0.246006 0.182488)">
<stop offset="0.663" stop-color="#454140"/>
<stop offset="1" stop-color="#454140" stop-opacity="0"/>
</radialGradient>
<radialGradient id="paint13_radial_2185_37" cx="0" cy="0" r="1" gradientUnits="userSpaceOnUse" gradientTransform="translate(5.9606 13.0646) rotate(83.4308) scale(1.08021 0.900352)">
<stop offset="0.725" stop-color="#454140" stop-opacity="0"/>
<stop offset="1" stop-color="#454140"/>
</radialGradient>
<radialGradient id="paint14_radial_2185_37" cx="0" cy="0" r="1" gradientUnits="userSpaceOnUse" gradientTransform="translate(7.35996 13.009) rotate(91.9886) scale(1.08025 0.900286)">
<stop offset="0.725" stop-color="#454140" stop-opacity="0"/>
<stop offset="1" stop-color="#454140"/>
</radialGradient>
<radialGradient id="paint15_radial_2185_37" cx="0" cy="0" r="1" gradientUnits="userSpaceOnUse" gradientTransform="translate(7.14457 12.1977) rotate(-2.28672) scale(0.832122 0.408733)">
<stop offset="0.728" stop-color="#454140" stop-opacity="0"/>
<stop offset="1" stop-color="#454140"/>
</radialGradient>
<radialGradient id="paint16_radial_2185_37" cx="0" cy="0" r="1" gradientUnits="userSpaceOnUse" gradientTransform="translate(7.968 12.2887) rotate(-157.214) scale(0.246011 0.182482)">
<stop offset="0.663" stop-color="#454140"/>
<stop offset="1" stop-color="#454140" stop-opacity="0"/>
</radialGradient>
<radialGradient id="paint17_radial_2185_37" cx="0" cy="0" r="1" gradientUnits="userSpaceOnUse" gradientTransform="translate(6.04289 13.6316) rotate(-110.205) scale(1.2663 0.939478)">
<stop offset="0.699" stop-color="#454140" stop-opacity="0"/>
<stop offset="1" stop-color="#454140"/>
</radialGradient>
<radialGradient id="paint18_radial_2185_37" cx="0" cy="0" r="1" gradientUnits="userSpaceOnUse" gradientTransform="translate(7.33158 14.9622) rotate(-154.088) scale(0.332011 0.393662)">
<stop offset="0.58" stop-color="#454140"/>
<stop offset="1" stop-color="#454140" stop-opacity="0"/>
</radialGradient>
<radialGradient id="paint19_radial_2185_37" cx="0" cy="0" r="1" gradientUnits="userSpaceOnUse" gradientTransform="translate(6.56619 14.3882) rotate(20.5191) scale(1.03833 0.583457)">
<stop offset="0.699" stop-color="#454140" stop-opacity="0"/>
<stop offset="1" stop-color="#454140"/>
</radialGradient>
<radialGradient id="paint20_radial_2185_37" cx="0" cy="0" r="1" gradientUnits="userSpaceOnUse" gradientTransform="translate(7.45288 14.6539) rotate(177.713) scale(0.304749 0.372794)">
<stop offset="0.702" stop-color="#454140" stop-opacity="0"/>
<stop offset="1" stop-color="#454140"/>
</radialGradient>
<radialGradient id="paint21_radial_2185_37" cx="0" cy="0" r="1" gradientUnits="userSpaceOnUse" gradientTransform="translate(7.47359 14.1155) rotate(12.773) scale(0.571527 0.534843)">
<stop offset="0.66" stop-color="#454140" stop-opacity="0"/>
<stop offset="1" stop-color="#454140"/>
</radialGradient>
<radialGradient id="paint22_radial_2185_37" cx="0" cy="0" r="1" gradientUnits="userSpaceOnUse" gradientTransform="translate(7.58703 13.5588) rotate(-174.456) scale(0.599986 0.843106)">
<stop offset="0.598" stop-color="#454140" stop-opacity="0"/>
<stop offset="1" stop-color="#454140"/>
</radialGradient>
</defs>
</svg>
